<svg width="33.544006px" height="31.945007px" viewBox="0 0 33.544006 31.945007" xmlns="http://www.w3.org/2000/svg" preserveAspectRatio="xMinYMid meet">
  <path d="M18.603 25.818L23.875 31.945L29.13 28.127L24 19.639C21.683 21.068 19.411 23.838 18.604 25.818L18.603 25.818ZM11.025 31.936C15.357 23.102 23.63 16.558 33.544 14.605L31.529 8.39899C19.501 9.75699 9.26801 17.047 3.79199 27.283L11.025 31.935L11.025 31.936ZM12.604 10.867L2.00598 8.37201L0 14.56L7.35797 17.666C8.867 16.14 10.554 14.809 12.408 13.672C14.92 12.128 17.113 11.106 20.841 9.828L20.015 0L13.517 0L12.603 10.868L12.604 10.867Z" fill="#FFFFFF" fill-rule="evenodd" stroke="none" />
</svg>